<svg xmlns="http://www.w3.org/2000/svg" xmlns:xlink="http://www.w3.org/1999/xlink" viewBox="0 0 1820 420" width="182" height="42">
	<path fill="#fff" d="M0 120c0 37.1 16.8 70.2 43.3 92.2C103 260 210 249 210 300c0 16.6-13.4 30-30 30h-80v-40H10v130h170c66.3 0 120-53.7 120-120 0-37.1-16.8-70.2-43.3-92.2C209 167 90 173 90 120c0-16.6 13.4-30 30-30h80v40h90V0H120C53.7 0 0 53.7 0 120zm380 210v90h90l52-90H380zm237.9-165H380v90h185.9l52-90zM712.5 0H380v90h280.5l52-90zM921 420V0H816.5L574 420h347zm-90-265.1V330H729.9L831 154.9zm179-34.9v180c0 66.3 53.7 120 120 120h180V255h-90v75h-90c-16.6 0-30-13.4-30-30V120c0-16.6 13.4-30 30-30h180V0h-180c-66.3 0-120 53.7-120 120zM1716.1 0L1610 183.7 1503.9 0H1400v420h90V155.9l120 207.8L1820 0h-103.9zm13.9 335.9V420h90V180l-90 155.9z"/>
</svg>
